# xmcd CD database file
#
# Track frame offsets:
#	150
#	17136
#	27111
#	66871
#	86946
#	99431
#	120853
#	140872
#	153678
#	170514
#
# Disc length: 4389 seconds
#
# Revision: 0
# Processed by: cddbd v1.5.2PL0 Copyright (c) Steve Scherf et al.
# Submitted via: CDex 1.70beta2
#
DISCID=8311230a
DTITLE=The MoFo Party Band - Black Market Live
DYEAR=2002
DGENRE=Blues
TTITLE0=Howlin' For My Baby
TTITLE1=Too Late
TTITLE2=Nineteen Years Old
TTITLE3=Voodoo Doll
TTITLE4=She Made My Blood Run Cold
TTITLE5=Love Business
TTITLE6=Oh Baby
TTITLE7=We're Ready
TTITLE8=Sugar
TTITLE9=Call The Doctor (Medley)
EXTD=YEAR: 2002
EXTT0=
EXTT1=
EXTT2=
EXTT3=
EXTT4=
EXTT5=
EXTT6=
EXTT7=
EXTT8=
EXTT9=
PLAYORDER=
